<svg width="84" height="49" viewBox="0 0 84 49" fill="none" xmlns="http://www.w3.org/2000/svg">
<path d="M55.1061 13.1035C55.587 13.4291 59.4906 26.5974 60.5704 28.6007C60.6771 26.405 60.6071 24.1844 60.639 21.986C60.6583 20.6786 60.7993 19.3806 60.7801 18.0713C60.7758 17.7656 60.758 16.7701 60.9352 16.5341C61.0734 16.6688 61.2873 18.329 61.3545 18.7007C61.7301 20.8219 62.1494 22.935 62.613 25.0387C62.7888 25.8402 63.1037 27.3703 63.3736 28.116C63.4784 25.7925 63.8629 23.1925 64.0942 20.8587C64.1473 20.3257 64.3805 17.2568 64.4928 16.9222L64.5657 16.8954C64.9051 17.3214 65.1914 21.9492 65.1561 22.7488C64.7993 30.8294 60.1722 38.5069 53.0772 42.3906C52.5709 42.6678 51.8883 43.0443 51.351 43.233C52.2 42.198 54.0954 41.4924 54.8687 40.1186C54.1824 40.3994 53.1317 40.6786 52.4078 40.9051L48.0994 42.2898C47.4121 42.5149 46.6907 42.7468 46.015 43.0011C44.8297 43.4471 43.4131 44.0745 42.147 44.2241C42.6309 43.9978 43.211 43.8358 43.7044 43.6086C44.3795 43.2979 45.0489 42.9275 45.7311 42.6363C47.186 42.0152 48.6522 41.4208 50.1156 40.8217C50.7131 40.5771 51.3975 40.173 52.0011 39.8949C52.8017 39.5263 53.6112 39.2953 54.3535 38.8241C53.0048 38.7447 52.0213 38.9318 50.7183 39.0294C48.1906 39.2188 45.6648 39.5124 43.143 39.7293C42.0415 39.796 40.9423 39.8962 39.8469 40.0298C39.4357 40.0793 37.6036 40.3934 37.3682 40.2223C37.6246 39.9328 40.8709 39.3617 41.4206 39.2432L48.6052 37.6662C49.8937 37.3919 52.4162 36.8521 53.5614 36.3497C52.4303 36.044 47.7746 36.0221 47.3007 35.6527C47.1978 35.5726 47.1536 35.4651 47.1362 35.3401C47.1178 35.208 47.107 35.0516 47.1926 34.9414C47.4093 34.6636 53.1881 34.9902 53.9106 34.9082C53.0311 34.374 51.1663 34.0498 50.3464 33.3389C50.0959 33.1214 50.3995 31.542 50.4282 31.0355C51.4859 31.026 52.5859 31.0366 53.6333 31.1821C54.4028 31.2889 55.139 31.4932 55.9005 31.6079C55.5367 31.2593 54.8414 30.9968 54.4776 30.5813C54.1631 30.2218 53.881 29.8269 53.5947 29.4434C53.2859 29.0148 52.8741 28.6067 52.5784 28.175C50.6416 25.3468 48.3476 22.7698 46.4225 19.9362C47.1978 20.5132 47.6326 21.2598 48.3067 21.9853L53.1623 27.2551C54.3149 28.4908 54.7977 29.1704 56.1384 30.2443C55.1385 27.9721 54.1062 25.7143 53.0424 23.4715L51.3947 20.0017C50.9021 18.9702 50.3826 18.0236 50.0695 16.9121C50.4489 17.4914 50.8927 18.2817 51.2433 18.895C52.0505 20.3074 52.9559 21.615 53.8176 22.9798L57.6751 29.1469C57.7146 27.8881 57.3277 25.93 57.1087 24.6697C56.7852 22.8056 56.5178 20.9115 56.184 19.0524C55.9339 17.6567 55.5964 16.238 55.3853 14.8218C55.2998 14.246 55.1578 13.6915 55.1061 13.1035Z" fill="#294773"/>
<path d="M51.061 32.1317C52.3585 31.8715 56.6739 32.6922 57.0942 34.1892C56.5672 34.19 55.1724 33.4259 54.6027 33.165C53.946 32.8647 51.3779 32.5478 51.061 32.1317Z" fill="white"/>
<path d="M23.9481 23.4023C24.5995 23.4168 25.7414 24.3336 26.3894 24.6643C27.9236 25.4839 29.5014 26.243 31.0284 27.0752C32.1677 27.6961 33.2763 28.4147 34.4601 28.9736C35.0278 29.2416 35.9836 29.9388 36.6041 30.009C38.3603 30.2077 40.1268 29.6814 41.8804 29.628C42.654 29.6038 43.807 29.5272 44.3759 30.1437C45.0847 30.9119 45.9522 32.0443 46.5851 32.9162C46.6702 33.0334 46.7484 33.3714 46.7392 33.514C46.692 34.2785 46.6032 35.7486 45.998 36.2757C44.384 37.6815 44.9732 33.8519 44.9832 33.3398C44.7352 32.8624 43.5718 31.2623 42.9819 31.3952L42.9362 31.4771C43.1744 31.9434 44.0525 32.7042 44.3713 33.2065C44.8341 33.9356 44.5631 37.3901 43.2727 37.0967C42.2853 36.8723 43.1761 34.1032 42.6276 33.4774C42.4204 33.2343 41.4306 31.7427 41.0689 31.983C41.029 32.2795 41.2734 32.4895 41.4543 32.7092C41.9633 33.3492 42.5194 33.8604 42.4206 34.7388C42.3352 35.4989 42.3057 36.2679 41.9201 36.9511C41.6057 37.5079 40.7065 37.8624 40.599 36.9661C40.4913 36.0651 40.7464 35.0484 40.6462 34.1658C40.5964 33.7264 39.4571 32.481 38.9482 32.6178C38.7225 33.0112 40.0127 34.1192 40.0344 34.5826C40.0454 35.1827 40.109 36.283 39.7449 36.7903C39.3482 37.343 37.4497 38.6005 37.2757 37.231C37.236 36.9176 37.7147 36.6032 37.9129 36.3673C38.2889 35.9197 38.2329 35.6447 38.1904 35.0977C36.5418 35.077 35.7047 35.5014 33.8306 35.0197C32.9965 34.9065 32.0134 34.0401 31.2083 34.0238C29.0315 33.9795 26.8787 34.1974 24.7042 34.2249C23.7658 34.2368 22.8509 34.4819 21.8965 34.3251C21.0708 33.4836 19.5738 30.5332 19.265 29.2828C19.1082 28.6477 19.9443 26.9156 20.3043 26.3472C21.0104 25.2321 22.6264 23.6926 23.9481 23.4023Z" fill="#1E1E1E"/>
<path d="M38.3259 6.18473C38.9836 6.16558 44.3401 7.86226 45.2122 8.34941C45.345 8.44257 45.5144 8.61011 45.5319 8.78855C45.6519 10.0126 44.634 13.5028 43.4384 13.941C42.8386 14.1609 40.4407 12.5625 39.4351 12.698C39.2481 12.8026 39.0354 12.9896 38.8937 13.1565C38.1131 14.0762 37.4029 15.0515 36.6039 15.9583C36.5119 16.0627 36.4153 16.2555 36.3768 16.3899C36.4629 16.7229 37.5941 17.8176 37.9203 18.224C37.7337 18.5949 37.3905 18.9801 37.1222 19.308C36.4011 20.1147 35.8231 20.8935 35.2066 21.7742C35.1435 21.8643 34.8462 22.0756 34.7182 22.0923C33.7718 22.2158 32.5727 21.7742 31.7302 21.3548C30.0504 20.345 29.3071 19.1804 30.1607 17.2748C30.4743 16.5749 30.8515 16.0486 31.2309 15.4045C32.1208 13.8935 33.0794 12.4735 34.1118 11.0592C34.8875 9.97307 35.5905 8.79043 36.2574 7.63331C36.6874 6.88739 37.5074 6.3785 38.3259 6.18473Z" fill="#1E1E1E"/>
<path d="M37.1907 7.41993C37.3686 7.40502 37.6878 7.3729 37.8469 7.45747C38.4349 7.7701 38.285 8.78841 37.6572 8.95892C36.5498 8.90907 36.2341 7.69826 37.1907 7.41993Z" fill="white"/>
<path d="M38.5631 6.50391C38.8291 6.50485 39.002 6.50032 39.1087 6.75838C39.0955 6.94578 39.0124 7.05832 38.9181 7.221C38.4208 7.21209 38.2707 6.89097 38.5631 6.50391Z" fill="white"/>
<path d="M24.4238 6.32129C24.6042 6.34935 24.7525 6.42515 24.9083 6.51831C26.1205 7.23635 26.6889 8.36994 27.0512 9.66757C27.4618 11.1385 26.9916 11.8806 26.5761 13.2492C26.4847 13.5505 26.4601 14.3412 26.4505 14.6993C26.4231 15.7186 26.2439 16.6435 25.8363 17.5839C25.4996 18.3988 24.8691 18.8756 24.4492 19.588C24.5373 20.1632 24.8584 21.9697 23.8978 22.0696C23.3287 22.1288 22.4212 21.9103 21.8035 21.8891C20.5007 21.8445 19.2737 21.9697 17.9951 22.1967C19.4076 20.4055 20.7214 20.3035 22.8073 20.9554C22.7712 19.2476 21.407 19.0056 20.0072 18.8507C19.6547 18.8117 19.1613 18.8669 18.8381 18.7249L18.8074 18.6371C19.0406 18.0794 20.014 17.9517 20.5423 17.929C21.6833 18.0386 22.2267 18.3703 23.171 19.0341C23.1212 18.4836 23.1808 17.6905 22.7861 17.2477C22.1849 16.5732 21.2213 16.2734 20.3881 16.0128C20.1373 15.9344 19.7208 15.8647 19.5107 15.7251C19.4882 15.6346 19.4795 15.5957 19.5441 15.5136C20.7522 13.9773 23.3305 15.7594 24.4169 16.4568C24.4448 16.2494 24.4664 16.0341 24.4902 15.8255C23.7091 14.1435 21.7458 13.4442 20.1238 12.7637C20.5415 10.0873 21.9498 11.193 23.7418 11.709C24.1791 11.8349 24.5171 11.8886 24.9706 11.8998C24.8769 10.1694 24.0878 9.74682 22.6377 9.07915C22.4613 8.99793 22.3068 8.93067 22.1205 8.8677C22.773 8.07834 23.3533 6.70264 24.4238 6.32129Z" fill="#1E1E1E"/>
<path d="M32.1328 4.56641C32.2217 4.6537 32.2677 4.93586 32.3364 5.08048C32.9993 6.47632 33.102 6.7381 34.3194 7.56062C34.1768 7.5484 34.0341 7.53849 33.8913 7.53099C32.1171 7.44142 31.756 9.46946 31.7157 10.8287C31.9489 10.3858 32.0987 9.9276 32.294 9.46955C32.5492 8.87075 32.8966 7.90409 33.7222 8.30493C33.9394 8.40874 34.1065 8.59506 34.1866 8.82264C34.3365 9.25814 34.1503 9.54096 33.9671 9.92529C33.7929 9.50035 33.6844 9.33984 33.4019 9.0024C32.6259 10.0773 32.8209 10.7612 32.486 11.9552C32.4 12.2617 31.8536 13.0241 31.6486 13.3254C30.9952 14.2138 30.6343 15.0807 29.7947 15.9032C29.3474 14.5895 29.4394 13.6906 29.8589 12.3678C29.99 11.9545 30.14 11.5056 30.1957 11.0784C29.6849 11.5131 29.115 12.6357 28.8562 12.7639L28.7817 12.7246C28.7528 12.6599 28.7375 12.6078 28.7365 12.5399C28.7198 11.4855 28.785 10.436 29.6072 9.67251C29.8302 9.42064 30.2257 9.00792 30.3162 8.68821C30.8291 6.8771 30.8396 6.04704 32.1328 4.56641Z" fill="#1E1E1E"/>
<path d="M33.5708 2.78916C33.6061 2.78655 33.8512 2.77193 33.8749 2.77949C34.3988 2.94641 34.711 4.25757 35.0393 4.75284C35.2956 5.13976 35.2142 5.09255 35.5182 5.44329C36.0185 5.35763 36.5207 5.25947 37.0089 5.11957C38.0228 4.82911 41.0399 3.68017 42.002 4.08255C42.6055 4.33498 42.8964 4.86897 43.1318 5.44173C42.5238 5.41282 42.1474 5.43168 41.5452 5.48418C40.3151 5.59427 39.1672 5.90728 37.8882 5.89058C36.6535 5.8744 36.1126 6.77899 35.38 7.6465C34.4693 7.19185 33.5059 6.61046 33.0943 5.64479C32.6223 4.53759 32.2716 3.38982 33.5708 2.78916ZM39.0878 5.41645C39.3464 5.38301 39.302 5.42753 39.4703 5.27697L39.4777 5.21448C39.3622 5.13368 39.4151 5.15552 39.2507 5.15302C39.0974 5.18217 38.9594 5.19146 38.8452 5.29565L38.8707 5.35938C38.9373 5.37848 39.0206 5.40503 39.0878 5.41645Z" fill="#1E1E1E"/>
<path d="M33.6371 3.09473C33.7949 3.11009 33.9375 3.31046 33.9773 3.44371C34.2049 4.20409 35.0074 5.42457 35.1945 6.10384L35.1534 6.16265L35.0687 6.13596C34.4061 5.65744 33.4538 4.21144 33.3511 3.40554C33.3907 3.26752 33.5189 3.19112 33.6371 3.09473Z" fill="white"/>
<path d="M41.65 4.41797C41.8101 4.48299 41.8785 4.78694 41.7989 4.93344C41.7263 5.0673 41.6514 5.05891 41.5203 5.10041C41.3424 5.04716 41.316 5.03391 41.2856 4.86599C41.344 4.69386 41.5168 4.54945 41.65 4.41797Z" fill="white"/>
<path d="M40.5145 4.64453L40.6391 4.66742C40.8152 4.87661 40.6467 5.14075 40.5165 5.33131C40.4041 5.20386 40.2796 5.09373 40.2534 4.92991C40.324 4.74053 40.3247 4.78468 40.5145 4.64453Z" fill="white"/>
<path d="M39.2507 5.15326C39.4151 5.15576 39.3622 5.13392 39.4777 5.21472L39.4703 5.27722C39.302 5.42778 39.3464 5.38325 39.0878 5.41669C39.0207 5.40528 38.9374 5.37872 38.8707 5.35962L38.8452 5.2959C38.9594 5.1917 39.0974 5.18241 39.2507 5.15326Z" fill="white" fill-opacity="0.988235"/>
<path d="M32.4107 35.551C32.5367 35.5483 32.6524 35.5724 32.7753 35.5969C33.9157 35.8248 35.0647 35.9611 36.2169 36.1167C36.2 36.7151 36.208 37.0302 36.0267 37.5916C35.5207 38.0005 33.9186 38.477 33.2424 38.5345C33.0352 38.5521 32.7003 38.0998 32.0987 38.1985C31.0634 38.3685 30.2736 38.7942 29.3519 39.2624C28.8967 39.4617 27.7267 40.2399 27.2564 40.5354C26.9258 40.2246 26.5996 39.9375 26.3779 39.539C27.0491 38.9361 28.7642 38.109 29.6523 37.7224C30.0792 37.5365 30.963 37.3405 31.3056 37.0531C31.783 36.6525 31.9551 36.0469 32.4107 35.551Z" fill="#1E1E1E"/>
<path d="M41.3842 15.2646C41.908 15.5526 44.6423 16.3312 45.4179 16.571C44.8058 17.2181 44.3869 17.9261 43.7837 18.5554C43.5724 18.7758 43.4376 18.8596 43.1433 18.8532C42.5284 18.7618 41.6967 18.5397 41.0808 18.3938C40.4295 18.2394 39.6101 18.0685 38.9985 17.8386C39.6707 16.9056 40.5908 16.1878 41.3842 15.2646Z" fill="#1E1E1E"/>
<path d="M41.8322 16.0908C42.7737 16.3543 43.7034 16.5746 44.6423 16.8285C44.2696 17.3636 43.8834 18.272 43.2775 18.521C42.4462 18.4413 41.9863 18.3055 41.2007 17.9958C41.6532 17.9548 42.1434 17.9391 42.5998 17.916C42.5235 17.7337 42.4175 17.4998 42.3527 17.3241C42.2914 17.0646 42.7418 16.9673 42.3683 16.7068C42.08 16.5057 41.963 16.4274 41.8322 16.0908Z" fill="white"/>
<path d="M44.021 23.4316C44.3763 23.5066 45.5072 24.5249 45.8777 24.7819C47.9886 26.246 50.0386 27.7977 52.1169 29.3082C52.453 29.5527 53.7796 30.3921 53.8905 30.6285C53.671 30.6523 51.8236 30.537 51.6868 30.4458C49.9935 29.3148 48.5781 27.7052 47.0869 26.3241C46.524 25.8025 45.9069 25.3577 45.3478 24.8332C44.8618 24.3695 44.5215 23.8629 44.021 23.4316Z" fill="#294773"/>
<path d="M47.9145 30.3301C48.1599 30.3336 49.4437 31.5766 49.6525 31.8403C49.7009 32.2652 49.6548 32.6907 49.6191 33.1153C49.1311 33.5387 48.4166 33.8469 47.8196 34.0746L47.2418 34.2464C47.2428 34.1835 47.2423 34.1205 47.2409 34.0576C47.2141 32.7276 47.0924 32.0653 46.1011 31.1114C46.7041 30.7795 47.2724 30.5564 47.9145 30.3301Z" fill="#1E1E1E"/>
<path d="M29.4613 5.15466C29.7981 5.10669 30.4481 5.04533 30.6901 5.31037C30.8094 6.17656 29.9214 6.4398 29.3815 6.81894C28.4541 7.47004 28.3155 9.44289 28.1274 10.5109C28.1056 10.557 28.1121 10.5412 28.0645 10.575C27.9885 10.4107 28.0104 9.93424 27.9923 9.72812C27.8671 8.30647 27.736 7.53009 26.8745 6.40023L26.8903 6.38561C27.6652 5.67898 28.4316 5.3165 29.4613 5.15466Z" fill="#1E1E1E"/>
<path d="M40.5942 13.5254C41.8557 13.8583 44.2989 14.599 44.8072 15.9528C44.7389 15.9487 44.671 15.9395 44.6041 15.9253C44.3928 15.8813 43.8709 15.627 43.6077 15.5474C41.802 15.0017 41.61 15.0489 40.5942 13.5254Z" fill="#1E1E1E"/>
<path d="M37.6092 2.41504C38.7766 2.65917 39.8565 2.94733 40.7734 3.74906C40.2297 3.79174 39.8731 3.80693 39.3293 3.90286C38.5688 4.03744 37.8345 4.14682 37.2539 4.65206C37.4393 4.17156 37.7695 3.78047 37.9447 3.25699C37.8443 2.86926 37.6668 2.65659 37.6092 2.41504Z" fill="#1E1E1E"/>
<path d="M39.4802 13.1592C39.9829 13.3458 40.5917 14.4471 40.7943 14.9218C40.3415 15.6231 39.5217 16.2896 38.9902 16.9362C38.2184 17.8753 37.9608 17.3689 37.2833 16.68C37.0294 16.3944 36.9318 16.27 36.7275 15.9476C37.2537 16.1804 37.7751 16.5995 38.2504 16.9404C39.0461 16.4749 39.6579 15.5761 40.1881 14.8344C39.8662 14.3583 39.3293 13.7424 39.4802 13.1592Z" fill="#1E1E1E"/>
<path d="M40.3027 5.81568C40.6891 5.80328 41.1437 5.84592 41.5465 5.84106C42.0905 5.83445 42.6987 5.77941 43.2323 5.82648C43.6909 6.29962 43.7781 6.56433 43.9422 7.18997C43.5759 7.17855 41.231 6.52094 40.8025 6.29528C40.5687 6.17213 40.3879 6.08109 40.3027 5.81568Z" fill="#1E1E1E"/>
<path d="M40.3412 19.8027L40.3881 19.8247L40.3928 19.8795C39.2464 20.9183 38.6406 22.2694 36.9148 22.5C36.8289 22.4299 36.8549 22.4737 36.834 22.3646C36.9599 22.2722 37.1355 22.2125 37.2867 22.1266C37.6154 21.9383 37.9325 21.7303 38.2364 21.5039C38.9748 20.9558 39.5737 20.1542 40.3412 19.8027Z" fill="#1E1E1E"/>
<path d="M35.521 28.543C36.4865 28.616 38.0931 29.0932 39.0808 29.3277C39.2343 29.3642 39.2357 29.4227 39.2898 29.542L39.2564 29.5479C38.6036 29.6589 35.9558 28.8535 35.521 28.543Z" fill="#1E1E1E"/>
<path d="M34.4375 7.77051C34.8427 7.7964 34.9511 8.02139 35.0622 8.38025C34.803 8.33832 34.5685 7.9847 34.4375 7.77051Z" fill="#1E1E1E"/>
</svg>
