<svg width="50" height="50" viewBox="0 0 50 50" fill="none" xmlns="http://www.w3.org/2000/svg">
<path d="M33.3333 6.25C36.096 6.25 38.7455 7.34747 40.699 9.30097C42.6525 11.2545 43.75 13.904 43.75 16.6667V33.3333C43.75 36.096 42.6525 38.7455 40.699 40.699C38.7455 42.6525 36.096 43.75 33.3333 43.75H16.6667C13.904 43.75 11.2545 42.6525 9.30097 40.699C7.34747 38.7455 6.25 36.096 6.25 33.3333V16.6667C6.25 13.904 7.34747 11.2545 9.30097 9.30097C11.2545 7.34747 13.904 6.25 16.6667 6.25H33.3333ZM25 16.6667C22.7899 16.6667 20.6702 17.5446 19.1074 19.1074C17.5446 20.6702 16.6667 22.7899 16.6667 25C16.6667 27.2101 17.5446 29.3298 19.1074 30.8926C20.6702 32.4554 22.7899 33.3333 25 33.3333C27.2101 33.3333 29.3298 32.4554 30.8926 30.8926C32.4554 29.3298 33.3333 27.2101 33.3333 25C33.3333 22.7899 32.4554 20.6702 30.8926 19.1074C29.3298 17.5446 27.2101 16.6667 25 16.6667ZM25 20.8333C26.1051 20.8333 27.1649 21.2723 27.9463 22.0537C28.7277 22.8351 29.1667 23.8949 29.1667 25C29.1667 26.1051 28.7277 27.1649 27.9463 27.9463C27.1649 28.7277 26.1051 29.1667 25 29.1667C23.8949 29.1667 22.8351 28.7277 22.0537 27.9463C21.2723 27.1649 20.8333 26.1051 20.8333 25C20.8333 23.8949 21.2723 22.8351 22.0537 22.0537C22.8351 21.2723 23.8949 20.8333 25 20.8333ZM34.375 13.5417C33.8225 13.5417 33.2926 13.7612 32.9019 14.1519C32.5112 14.5426 32.2917 15.0725 32.2917 15.625C32.2917 16.1775 32.5112 16.7074 32.9019 17.0981C33.2926 17.4888 33.8225 17.7083 34.375 17.7083C34.9275 17.7083 35.4574 17.4888 35.8481 17.0981C36.2388 16.7074 36.4583 16.1775 36.4583 15.625C36.4583 15.0725 36.2388 14.5426 35.8481 14.1519C35.4574 13.7612 34.9275 13.5417 34.375 13.5417Z" fill="#1E1E1E"/>
</svg>
