<svg width="119" height="69" viewBox="0 0 119 69" fill="none" xmlns="http://www.w3.org/2000/svg">
<path d="M78.7227 18.7188C79.4097 19.1839 84.9863 37.9958 86.5289 40.8576C86.6813 37.721 86.5813 34.5487 86.6269 31.4081C86.6545 29.5404 86.8559 27.6861 86.8284 25.8157C86.8223 25.3789 86.7968 23.9567 87.05 23.6196C87.2474 23.8121 87.553 26.1837 87.649 26.7147C88.1856 29.7451 88.7846 32.7638 89.4468 35.7691C89.698 36.9141 90.1479 39.1 90.5334 40.1653C90.6831 36.8459 91.2325 33.1316 91.5629 29.7977C91.6388 29.0363 91.9719 24.6521 92.1324 24.1741L92.2364 24.1358C92.7213 24.7443 93.1303 31.3554 93.0799 32.4979C92.5702 44.0415 85.9601 55.0094 75.8242 60.5575C75.101 60.9536 74.1259 61.4914 73.3583 61.7609C74.5711 60.2824 77.2788 59.2744 78.3836 57.3118C77.4031 57.7129 75.9021 58.1117 74.868 58.4354L68.7131 60.4135C67.7313 60.7351 66.7007 61.0664 65.7354 61.4297C64.0422 62.0668 62.0185 62.963 60.2097 63.1768C60.901 62.8535 61.7297 62.6221 62.4346 62.2976C63.399 61.8536 64.3553 61.3245 65.3299 60.9085C67.4083 60.0212 69.5029 59.172 71.5934 58.3162C72.447 57.9667 73.4248 57.3895 74.2871 56.9922C75.4307 56.4656 76.5871 56.1357 77.6475 55.4625C75.7208 55.3491 74.3159 55.6164 72.4544 55.7558C68.8434 56.0264 65.2352 56.4458 61.6326 56.7556C60.059 56.8509 58.4887 56.9941 56.9239 57.185C56.3365 57.2556 53.7191 57.7044 53.3828 57.4599C53.7491 57.0464 58.3867 56.2305 59.172 56.0613L69.4357 53.8084C71.2765 53.4164 74.88 52.6454 76.516 51.9277C74.9002 51.4909 68.2491 51.4597 67.5722 50.932C67.4251 50.8176 67.362 50.664 67.3371 50.4853C67.3109 50.2967 67.2955 50.0732 67.4177 49.9158C67.7273 49.5189 75.9827 49.9854 77.0149 49.8684C75.7584 49.1052 73.0944 48.6421 71.9232 47.6265C71.5652 47.3158 71.9991 45.0595 72.04 44.336C73.551 44.3223 75.1225 44.3376 76.6187 44.5453C77.718 44.698 78.7697 44.9898 79.8576 45.1537C79.3378 44.6556 78.3446 44.2807 77.8248 43.687C77.3755 43.1734 76.9726 42.6093 76.5636 42.0615C76.1224 41.4493 75.5341 40.8662 75.1117 40.2495C72.3449 36.2092 69.0677 32.5278 66.3175 28.4798C67.4251 29.304 68.0463 30.3707 69.0093 31.4071L75.9458 38.9354C77.5925 40.7006 78.2821 41.6715 80.1974 43.2057C78.769 39.9597 77.2943 36.7342 75.7746 33.5302L73.4207 28.5733C72.717 27.0998 71.9749 25.7475 71.5276 24.1596C72.0696 24.9872 72.7035 26.1162 73.2045 26.9924C74.3576 29.0101 75.651 30.878 76.882 32.8278L82.3928 41.6379C82.4492 39.8397 81.8965 37.0424 81.5835 35.242C81.1215 32.579 80.7394 29.8731 80.2626 27.2173C79.9053 25.2234 79.4231 23.1967 79.1216 21.1736C78.9994 20.3509 78.7966 19.5588 78.7227 18.7188Z" fill="#294773"/>
<path d="M72.9443 45.9012C74.7978 45.5295 80.9627 46.702 81.5631 48.8404C80.8103 48.8417 78.8178 47.75 78.0039 47.3774C77.0657 46.9484 73.397 46.4956 72.9443 45.9012Z" fill="white"/>
<path d="M34.211 33.4315C35.1415 33.4521 36.7729 34.7618 37.6986 35.2343C39.8903 36.4051 42.1443 37.4896 44.3258 38.6784C45.9533 39.5655 47.5369 40.592 49.2282 41.3904C50.0391 41.7732 51.4046 42.7692 52.291 42.8696C54.7998 43.1534 57.3235 42.4015 59.8285 42.3252C60.9337 42.2907 62.5809 42.1813 63.3936 43.062C64.4062 44.1593 65.6454 45.7771 66.5495 47.0226C66.6711 47.1901 66.7829 47.673 66.7697 47.8767C66.7023 48.9689 66.5754 51.069 65.7108 51.822C63.4052 53.8303 64.2468 48.3594 64.2612 47.6278C63.9068 46.9458 62.2449 44.66 61.4021 44.8498L61.3368 44.9668C61.6772 45.6329 62.9316 46.7199 63.387 47.4375C64.0481 48.4789 63.661 53.4139 61.8176 52.9948C60.407 52.6743 61.6796 48.7183 60.896 47.8244C60.6 47.4771 59.186 45.3463 58.6694 45.6895C58.6123 46.1132 58.9614 46.4132 59.2199 46.727C59.947 47.6412 60.7414 48.3715 60.6003 49.6264C60.4783 50.7122 60.4362 51.8108 59.8853 52.7868C59.4361 53.5823 58.1516 54.0887 57.9981 52.8082C57.8441 51.521 58.2085 50.0687 58.0655 48.8079C57.9942 48.1801 56.3667 46.401 55.6398 46.5964C55.3173 47.1583 57.1604 48.7412 57.1914 49.4033C57.2071 50.2605 57.298 51.8324 56.7779 52.5571C56.2111 53.3467 53.499 55.1431 53.2505 53.1867C53.1937 52.739 53.8776 52.2899 54.1607 51.9528C54.6979 51.3134 54.6179 50.9205 54.5571 50.1391C52.2021 50.1095 51.0061 50.7158 48.3288 50.0276C47.1372 49.8659 45.7328 48.6283 44.5828 48.6049C41.473 48.5417 38.3976 48.853 35.2912 48.8922C33.9505 48.9092 32.6435 49.2594 31.2802 49.0354C30.1006 47.8332 27.962 43.6184 27.5208 41.8321C27.2968 40.9248 28.4914 38.4503 29.0055 37.6384C30.0143 36.0454 32.3229 33.8461 34.211 33.4315Z" fill="#1E1E1E"/>
<path d="M54.7512 8.83464C55.6909 8.80728 63.343 11.2311 64.5889 11.927C64.7786 12.0601 65.0206 12.2995 65.0456 12.5544C65.2169 14.303 63.7628 19.289 62.0548 19.9151C61.1979 20.2292 57.7725 17.9457 56.3359 18.1393C56.0686 18.2887 55.7649 18.5558 55.5625 18.7944C54.4473 20.1082 53.4328 21.5014 52.2913 22.7968C52.1598 22.9461 52.0219 23.2215 51.9668 23.4135C52.0898 23.8892 53.7059 25.453 54.1719 26.0336C53.9054 26.5634 53.415 27.1137 53.0317 27.5822C52.0016 28.7346 51.1758 29.8472 50.2951 31.1053C50.205 31.234 49.7802 31.5359 49.5974 31.5598C48.2455 31.7362 46.5325 31.1053 45.3288 30.5062C42.9291 29.0636 41.8672 27.3998 43.0868 24.6776C43.5347 23.6777 44.0736 22.9259 44.6156 22.0057C45.8868 19.8471 47.2563 17.8186 48.7311 15.7981C49.8393 14.2466 50.8436 12.5571 51.7963 10.904C52.4105 9.83844 53.5819 9.11145 54.7512 8.83464Z" fill="#1E1E1E"/>
<path d="M53.129 10.5996C53.3831 10.5783 53.8392 10.5324 54.0665 10.6532C54.9064 11.0998 54.6924 12.5545 53.7954 12.7981C52.2134 12.7269 51.7625 10.9972 53.129 10.5996Z" fill="white"/>
<path d="M55.0901 9.28973C55.4702 9.29108 55.7172 9.28461 55.8695 9.65326C55.8507 9.92098 55.732 10.0818 55.5973 10.3142C54.8869 10.3014 54.6724 9.84268 55.0901 9.28973Z" fill="white"/>
<path d="M34.8908 9.02896C35.1485 9.06905 35.3605 9.17734 35.583 9.31042C37.3147 10.3362 38.1267 11.9556 38.6443 13.8094C39.2309 15.9107 38.5591 16.9709 37.9656 18.926C37.835 19.3564 37.7999 20.486 37.7861 20.9976C37.747 22.4537 37.491 23.7749 36.9087 25.1184C36.4277 26.2825 35.5269 26.9636 34.9271 27.9815C35.053 28.8031 35.5117 31.3838 34.1394 31.5266C33.3264 31.6112 32.03 31.2989 31.1475 31.2687C29.2864 31.205 27.5335 31.3839 25.707 31.7081C27.7249 29.1493 29.6017 29.0036 32.5816 29.9348C32.5301 27.4951 30.5812 27.1493 28.5814 26.9281C28.0778 26.8725 27.373 26.9512 26.9113 26.7483L26.8674 26.623C27.2006 25.8262 28.5911 25.6438 29.3458 25.6114C30.9758 25.768 31.7522 26.2419 33.1011 27.1902C33.03 26.4038 33.1151 25.2706 32.5513 24.6382C31.6924 23.6745 30.3159 23.2463 29.1256 22.874C28.7673 22.7619 28.1723 22.6625 27.8721 22.463C27.84 22.3336 27.8276 22.2782 27.9198 22.1609C29.6457 19.9661 33.3289 22.5119 34.881 23.5083C34.9208 23.212 34.9517 22.9044 34.9857 22.6064C33.8699 20.2035 31.0651 19.2045 28.748 18.2324C29.3448 14.4089 31.3565 15.9885 33.9166 16.7257C34.5412 16.9055 35.0241 16.9822 35.672 16.9983C35.5381 14.5263 34.4108 13.9226 32.3393 12.9688C32.0872 12.8527 31.8666 12.7566 31.6005 12.6667C32.5326 11.539 33.3616 9.57375 34.8908 9.02896Z" fill="#1E1E1E"/>
<path d="M45.9037 6.52374C46.0307 6.64845 46.0965 7.05153 46.1945 7.25813C47.1416 9.25219 47.2882 9.62616 49.0274 10.8012C48.8238 10.7837 48.6199 10.7696 48.4159 10.7589C45.8813 10.6309 45.3654 13.5281 45.3078 15.4699C45.641 14.8372 45.8551 14.1826 46.134 13.5282C46.4986 12.6728 46.9948 11.2919 48.1744 11.8645C48.4846 12.0128 48.7233 12.279 48.8378 12.6041C49.0519 13.2262 48.7859 13.6303 48.5242 14.1793C48.2752 13.5722 48.1202 13.3429 47.7167 12.8609C46.6082 14.3964 46.8867 15.3734 46.4082 17.0792C46.2854 17.517 45.5049 18.6062 45.212 19.0366C44.2786 20.3057 43.763 21.5441 42.5636 22.7192C41.9246 20.8425 42.056 19.5583 42.6553 17.6686C42.8425 17.0782 43.0568 16.4369 43.1365 15.8265C42.4067 16.4477 41.5926 18.0514 41.2229 18.2345L41.1164 18.1783C41.0752 18.0858 41.0534 18.0115 41.0518 17.9145C41.028 16.4082 41.1212 14.9088 42.2957 13.8182C42.6143 13.4584 43.1792 12.8688 43.3086 12.412C44.0413 9.82474 44.0563 8.63894 45.9037 6.52374Z" fill="#1E1E1E"/>
<path d="M47.9579 3.98394C48.0084 3.98023 48.3585 3.95934 48.3924 3.97014C49.1407 4.20859 49.5869 6.08168 50.0557 6.78921C50.422 7.34195 50.3057 7.2745 50.7399 7.77556C51.4547 7.65319 52.172 7.51297 52.8696 7.31311C54.3179 6.89817 58.6281 5.25683 60.0024 5.83166C60.8647 6.19227 61.2802 6.95511 61.6165 7.77334C60.7479 7.73203 60.2102 7.75899 59.3499 7.83398C57.5926 7.99125 55.9528 8.43841 54.1257 8.41455C52.3618 8.39144 51.5891 9.68371 50.5426 10.923C49.2415 10.2735 47.8653 9.44295 47.2772 8.06342C46.6029 6.4817 46.1019 4.84204 47.9579 3.98394ZM55.8394 7.73722C56.2088 7.68945 56.1454 7.75306 56.3858 7.53797L56.3963 7.44869C56.2314 7.33326 56.3069 7.36446 56.072 7.36089C55.853 7.40253 55.6559 7.41581 55.4928 7.56465L55.5293 7.65569C55.6244 7.68298 55.7434 7.72091 55.8394 7.73722Z" fill="#1E1E1E"/>
<path d="M48.0526 4.42062C48.2781 4.44258 48.4817 4.72882 48.5387 4.91918C48.8638 6.00543 50.0102 7.74897 50.2775 8.71935L50.2188 8.80338L50.0978 8.76524C49.1512 8.08164 47.7908 6.01593 47.644 4.86465C47.7006 4.66747 47.8839 4.55833 48.0526 4.42062Z" fill="white"/>
<path d="M59.4995 6.31024C59.7283 6.40312 59.8259 6.83734 59.7122 7.04663C59.6085 7.23786 59.5015 7.22587 59.3142 7.28516C59.0601 7.20909 59.0223 7.19015 58.979 6.95027C59.0623 6.70437 59.3093 6.49808 59.4995 6.31024Z" fill="white"/>
<path d="M57.8774 6.63342L58.0553 6.66612C58.3069 6.96497 58.0662 7.34231 57.8803 7.61454C57.7197 7.43247 57.5418 7.27513 57.5044 7.04111C57.6053 6.77057 57.6063 6.83364 57.8774 6.63342Z" fill="white"/>
<path d="M56.0719 7.3609C56.3068 7.36447 56.2313 7.33327 56.3962 7.4487L56.3856 7.53798C56.1453 7.75307 56.2087 7.68946 55.8393 7.73723C55.7433 7.72092 55.6243 7.68299 55.5291 7.6557L55.4927 7.56466C55.6558 7.41581 55.8529 7.40254 56.0719 7.3609Z" fill="white" fill-opacity="0.988235"/>
<path d="M46.3004 50.7869C46.4803 50.783 46.6457 50.8174 46.8212 50.8525C48.4504 51.178 50.0918 51.3728 51.7378 51.5951C51.7136 52.4498 51.7251 52.9 51.4661 53.702C50.7433 54.2862 48.4544 54.9669 47.4885 55.0491C47.1925 55.0742 46.714 54.428 45.8547 54.5691C44.3757 54.8119 43.2474 55.42 41.9307 56.0889C41.2803 56.3737 39.609 57.4854 38.9371 57.9075C38.4648 57.4635 37.9988 57.0533 37.6821 56.484C38.6409 55.6228 41.0911 54.4412 42.3597 53.8889C42.9696 53.6233 44.2323 53.3434 44.7216 52.9328C45.4037 52.3604 45.6496 51.4953 46.3004 50.7869Z" fill="#1E1E1E"/>
<path d="M59.1201 21.8068C59.8683 22.2181 63.7745 23.3304 64.8825 23.6729C64.008 24.5974 63.4096 25.6089 62.5478 26.5078C62.246 26.8227 62.0534 26.9424 61.633 26.9332C60.7546 26.8027 59.5665 26.4854 58.6866 26.2769C57.7561 26.0565 56.5855 25.8123 55.7119 25.4838C56.6722 24.1509 57.9866 23.1256 59.1201 21.8068Z" fill="#1E1E1E"/>
<path d="M59.76 22.9868C61.105 23.3633 62.4333 23.6779 63.7745 24.0406C63.2421 24.805 62.6904 26.1028 61.8249 26.4585C60.6372 26.3447 59.9802 26.1505 58.8579 25.7082C59.5044 25.6496 60.2047 25.6271 60.8567 25.5942C60.7476 25.3338 60.5962 24.9996 60.5036 24.7486C60.4161 24.3778 61.0595 24.2389 60.5259 23.8667C60.1141 23.5795 59.9469 23.4676 59.76 22.9868Z" fill="white"/>
<path d="M62.8867 33.4735C63.3943 33.5806 65.0099 35.0352 65.5392 35.4024C68.5547 37.4939 71.4833 39.7108 74.4523 41.8685C74.9324 42.2178 76.8276 43.417 76.9861 43.7547C76.6725 43.7887 74.0332 43.624 73.8378 43.4936C71.4189 41.8779 69.3968 39.5786 67.2666 37.6056C66.4624 36.8605 65.5809 36.225 64.7822 35.4757C64.0879 34.8133 63.6017 34.0896 62.8867 33.4735Z" fill="#294773"/>
<path d="M68.4491 43.3282C68.7996 43.3332 70.6336 45.109 70.9318 45.4856C71.001 46.0927 70.9352 46.7006 70.8841 47.3071C70.1871 47.912 69.1663 48.3523 68.3134 48.6776L67.4881 48.923C67.4894 48.8331 67.4887 48.7432 67.4867 48.6533C67.4484 46.7533 67.2745 45.8072 65.8584 44.4444C66.7198 43.9703 67.5317 43.6516 68.4491 43.3282Z" fill="#1E1E1E"/>
<path d="M42.087 7.363C42.5682 7.29447 43.4968 7.20681 43.8424 7.58543C44.0128 8.82285 42.7444 9.19891 41.9729 9.74054C40.6481 10.6707 40.4502 13.489 40.1814 15.0148C40.1503 15.0806 40.1595 15.058 40.0916 15.1063C39.983 14.8716 40.0144 14.191 39.9884 13.8965C39.8096 11.8656 39.6224 10.7565 38.3916 9.14238L38.4141 9.12149C39.5212 8.11203 40.616 7.59419 42.087 7.363Z" fill="#1E1E1E"/>
<path d="M57.9917 19.3211C59.7938 19.7967 63.284 20.8549 64.0102 22.7889C63.9126 22.7831 63.8156 22.7699 63.72 22.7496C63.4182 22.6868 62.6727 22.3234 62.2966 22.2097C59.7171 21.4302 59.4428 21.4976 57.9917 19.3211Z" fill="#1E1E1E"/>
<path d="M53.7273 3.44882C55.395 3.79758 56.9377 4.20924 58.2476 5.35456C57.4709 5.41553 56.9614 5.43724 56.1845 5.57428C55.0982 5.76653 54.0491 5.92279 53.2197 6.64457C53.4846 5.95813 53.9562 5.39943 54.2065 4.65161C54.0632 4.09771 53.8096 3.7939 53.7273 3.44882Z" fill="#1E1E1E"/>
<path d="M56.3996 18.7991C57.1178 19.0657 57.9876 20.6389 58.2769 21.3172C57.6302 22.319 56.4589 23.2711 55.6997 24.1948C54.5971 25.5364 54.2291 24.8129 53.2613 23.8289C52.8986 23.4208 52.7591 23.2432 52.4673 22.7825C53.2189 23.1151 53.9638 23.7138 54.6429 24.2008C55.7795 23.5357 56.6535 22.2518 57.411 21.1922C56.9511 20.5121 56.1842 19.6322 56.3996 18.7991Z" fill="#1E1E1E"/>
<path d="M57.5747 8.30736C58.1267 8.28964 58.7761 8.35055 59.3514 8.34361C60.1286 8.33417 60.9975 8.25554 61.7598 8.32279C62.4149 8.9987 62.5395 9.37686 62.7739 10.2706C62.2506 10.2543 58.9008 9.31486 58.2887 8.9925C57.9546 8.81657 57.6964 8.68652 57.5747 8.30736Z" fill="#1E1E1E"/>
<path d="M57.6299 28.2887L57.6969 28.3201L57.7036 28.3984C56.066 29.8824 55.2005 31.8126 52.7351 32.142C52.6123 32.0419 52.6495 32.1044 52.6196 31.9486C52.7995 31.8166 53.0503 31.7312 53.2663 31.6085C53.7359 31.3395 54.1889 31.0425 54.623 30.719C55.678 29.9359 56.5335 28.7908 57.6299 28.2887Z" fill="#1E1E1E"/>
<path d="M50.7441 40.7758C52.1234 40.8802 54.4186 41.5619 55.8295 41.897C56.0488 41.9491 56.0509 42.0325 56.1281 42.203L56.0804 42.2114C55.1478 42.3701 51.3653 41.2194 50.7441 40.7758Z" fill="#1E1E1E"/>
<path d="M49.1963 11.0994C49.7751 11.1364 49.93 11.4578 50.0887 11.9704C49.7185 11.9105 49.3834 11.4054 49.1963 11.0994Z" fill="#1E1E1E"/>
</svg>
